<?xml version="1.0" encoding="UTF-8"?>
<svg id="Capa_1" data-name="Capa 1" xmlns="http://www.w3.org/2000/svg" viewBox="0 0 158.71 158.59">
  <defs>
    <style>
      .cls-1 {
        fill: #fff;
      }
    </style>
  </defs>
  <g>
    <path class="cls-1" d="M127.93,105.12s1.82-11.83,1.82-24.53c0-4.66-.25-9.2-.56-13.08-.46-5.7-6.41-9.24-11.63-6.92-4.47,1.98-8.78,4.24-12.93,6.75,3.3,16.44,11.13,31.23,22.13,43.05,.48-1.71,.87-3.48,1.17-5.27Z"/>
    <path class="cls-1" d="M103.76,129.28c6.46-1.07,12.67-3.24,16.8-7.37,1.33-1.33,2.44-2.9,3.4-4.61-12.39-12.46-21.35-28.31-25.42-46.03-7.3,5.05-14,10.92-19.96,17.47,5.23,15.19,13.4,29,23.87,40.74,.84-.11,1.32-.19,1.32-.19Z"/>
    <path class="cls-1" d="M73.48,94.72c-5.84,7.35-10.82,15.42-14.77,24.05-2.39,5.23,1.11,11.25,6.84,11.73,4.02,.34,8.79,.61,13.67,.61,5.46,0,10.74-.34,15.01-.72-8.74-10.58-15.8-22.61-20.76-35.67Z"/>
    <path class="cls-1" d="M105.11,55.41c4.27-2.29,8.69-4.34,13.24-6.13,4.14-1.63,5.24-7.07,2.04-10.16-4.12-3.98-9.81-6.06-16.63-7.24,0,0-6.47-.94-14.38-1.47-4.32-.29-7.02,4.5-4.62,8.09,2.76,4.13,5.28,8.44,7.55,12.89,2.4,4.71,8.14,6.51,12.8,4.02Z"/>
    <path class="cls-1" d="M54.69,31.88c-6.46,1.07-12.67,3.24-16.8,7.37-4.13,4.13-6.3,10.33-7.37,16.8,0,0-1.82,11.83-1.82,24.53,0,12.71,1.82,24.53,1.82,24.53,1.28,8.08,3.84,12.91,6.54,15.94,3.05,3.43,8.63,2.5,10.37-1.75,7.72-18.9,19.88-35.5,35.18-48.55,3.24-2.77,4.23-7.31,2.43-11.18-3.99-8.57-8.98-16.57-14.83-23.85-2.64-3.29-6.85-4.93-11.05-4.44-2.79,.32-4.47,.58-4.47,.58Z"/>
  </g>
  <g>
    <path class="cls-1" d="M137.87,134.52s-15.52,8.48-33.17,14.87c-10.47,3.79-20.82,6.53-27.52,8.13-.65,.16-.51,1.12,.16,1.08,3.31-.2,6.75-.47,10.23-.84,19.76-2.08,37.85-6.85,37.85-6.85,9.87-2.72,19.17-7.11,24.91-14.21,4.35-5.37,6.76-12.41,7.94-19.95,.1-.61-.74-.89-1.02-.34-3.99,8-12.07,14.01-19.37,18.11Z"/>
    <path class="cls-1" d="M24.07,137.98s-8.48-15.52-14.87-33.17c-3.79-10.47-6.53-20.82-8.13-27.52-.16-.65-1.12-.51-1.08,.16,.2,3.31,.47,6.75,.84,10.23,2.08,19.76,6.85,37.85,6.85,37.85,2.72,9.87,7.11,19.17,14.21,24.91,5.37,4.35,12.41,6.76,19.95,7.94,.61,.1,.89-.74,.34-1.02-8-3.99-14.01-12.07-18.11-19.37Z"/>
    <path class="cls-1" d="M134.63,20.61s8.48,15.52,14.87,33.17c3.79,10.47,6.53,20.82,8.13,27.52,.16,.65,1.12,.51,1.08-.16-.2-3.31-.47-6.75-.84-10.23-2.08-19.76-6.85-37.85-6.85-37.85-2.72-9.87-7.11-19.17-14.21-24.91-5.37-4.35-12.41-6.76-19.95-7.94-.61-.1-.89,.74-.34,1.02,8,3.99,14.01,12.07,18.11,19.37Z"/>
    <path class="cls-1" d="M20.84,24.07s15.52-8.48,33.17-14.87c10.47-3.79,20.82-6.53,27.52-8.13,.65-.16,.51-1.12-.16-1.08-3.31,.2-6.75,.47-10.23,.84-19.76,2.08-37.85,6.85-37.85,6.85-9.87,2.72-19.17,7.11-24.91,14.21C4.03,27.27,1.62,34.31,.45,41.85c-.1,.61,.74,.89,1.02,.34,3.99-8,12.07-14.02,19.37-18.11Z"/>
  </g>
</svg>